<?xml version="1.0" encoding="UTF-8" standalone="no"?>
<svg
   xmlns:dc="http://purl.org/dc/elements/1.1/"
   xmlns:cc="http://creativecommons.org/ns#"
   xmlns:rdf="http://www.w3.org/1999/02/22-rdf-syntax-ns#"
   xmlns:svg="http://www.w3.org/2000/svg"
   xmlns="http://www.w3.org/2000/svg"
   xmlns:sodipodi="http://sodipodi.sourceforge.net/DTD/sodipodi-0.dtd"
   xmlns:inkscape="http://www.inkscape.org/namespaces/inkscape"
   fill="none"
   viewBox="0 0 348 348"
   version="1.1"
   id="svg14"
   sodipodi:docname="The Rose Button.svg"
   inkscape:version="1.0 (4035a4fb49, 2020-05-01)">
  <metadata
     id="metadata20">
    <rdf:RDF>
      <cc:Work
         rdf:about="">
        <dc:format>image/svg+xml</dc:format>
        <dc:type
           rdf:resource="http://purl.org/dc/dcmitype/StillImage" />
      </cc:Work>
    </rdf:RDF>
  </metadata>
  <defs
     id="defs18" />
  <sodipodi:namedview
     inkscape:document-rotation="0"
     pagecolor="#ffffff"
     bordercolor="#666666"
     borderopacity="1"
     objecttolerance="10"
     gridtolerance="10"
     guidetolerance="10"
     inkscape:pageopacity="0"
     inkscape:pageshadow="2"
     inkscape:window-width="1920"
     inkscape:window-height="1017"
     id="namedview16"
     showgrid="false"
     inkscape:zoom="1.7271286"
     inkscape:cx="215.27016"
     inkscape:cy="184.45447"
     inkscape:window-x="1912"
     inkscape:window-y="-8"
     inkscape:window-maximized="1"
     inkscape:current-layer="svg14" />
  <path
     stroke="#000"
     stroke-width="2"
     d="M5.08 5.78h336.91v337.67H5.08z"
     id="path2" />
  <path
     fill="#000"
     stroke="#646464"
     stroke-width="5"
     d="M 27.858235,27.476471 H 242.85824 V 127.47647 H 27.858235 Z"
     id="path4" />
  <circle
     cx="174"
     cy="234.61"
     r="83.45"
     fill="#ababab"
     stroke="#000"
     stroke-width="5"
     id="circle6"
     style="fill:#ffffff;fill-opacity:1" />
  <path
     stroke="#000"
     stroke-width="2"
     d="M282.73 40.55c0-8.37 6.97-15.16 15.56-15.16 4.13 0 8.09 1.6 11 4.44a14.97 14.97 0 014.56 10.72c0 8.38-6.96 15.17-15.56 15.17-8.59 0-15.56-6.8-15.56-15.17z"
     id="path8" />
  <g
     aria-label="0.00"
     id="text847"
     style="font-style:normal;font-variant:normal;font-weight:normal;font-stretch:normal;font-size:85.3333px;line-height:1;font-family:Bahnschrift;-inkscape-font-specification:'Bahnschrift, @wght=400,wdth=100.0';font-variant-ligatures:normal;font-variant-caps:normal;font-variant-numeric:normal;font-variant-east-asian:normal;font-variation-settings:'wdth' 100, 'wght' 400;letter-spacing:1px;word-spacing:1px;fill:#ffffff;fill-opacity:1;stroke:none">
    <path
       d="m 80.358261,108.45563 q -8.499996,0 -12.916661,-4.54167 -4.374998,-4.541662 -4.374998,-12.666659 V 63.705646 q 0,-8.166663 4.416665,-12.666662 4.416665,-4.541664 12.874994,-4.541664 8.499997,0 12.874995,4.499998 4.416665,4.499998 4.416665,12.708328 v 27.541655 q 0,8.166663 -4.416665,12.708329 -4.416665,4.5 -12.874995,4.5 z m 0,-8.08333 q 4.499999,0 6.624998,-2.333335 2.166665,-2.374999 2.166665,-6.791664 V 63.705646 q 0,-4.416665 -2.124999,-6.749997 -2.124999,-2.374999 -6.666664,-2.374999 -4.541664,0 -6.666663,2.374999 -2.125,2.333332 -2.125,6.749997 v 27.541655 q 0,4.416665 2.125,6.791664 2.166665,2.333335 6.666663,2.333335 z"
       id="path919" />
    <path
       d="m 107.69158,98.913964 h 8.91667 v 8.916666 h -8.91667 z"
       id="path921" />
    <path
       d="m 143.85824,108.45563 q -8.5,0 -12.91666,-4.54167 -4.375,-4.541662 -4.375,-12.666659 V 63.705646 q 0,-8.166663 4.41666,-12.666662 4.41667,-4.541664 12.875,-4.541664 8.5,0 12.87499,4.499998 4.41667,4.499998 4.41667,12.708328 v 27.541655 q 0,8.166663 -4.41667,12.708329 -4.41666,4.5 -12.87499,4.5 z m 0,-8.08333 q 4.5,0 6.625,-2.333335 2.16666,-2.374999 2.16666,-6.791664 V 63.705646 q 0,-4.416665 -2.125,-6.749997 -2.125,-2.374999 -6.66666,-2.374999 -4.54167,0 -6.66667,2.374999 -2.12499,2.333332 -2.12499,6.749997 v 27.541655 q 0,4.416665 2.12499,6.791664 2.16667,2.333335 6.66667,2.333335 z"
       id="path923" />
    <path
       d="m 190.35822,108.45563 q -8.5,0 -12.91667,-4.54167 -4.37499,-4.541662 -4.37499,-12.666659 V 63.705646 q 0,-8.166663 4.41666,-12.666662 4.41667,-4.541664 12.875,-4.541664 8.49999,0 12.87499,4.499998 4.41667,4.499998 4.41667,12.708328 v 27.541655 q 0,8.166663 -4.41667,12.708329 -4.41666,4.5 -12.87499,4.5 z m 0,-8.08333 q 4.49999,0 6.62499,-2.333335 2.16667,-2.374999 2.16667,-6.791664 V 63.705646 q 0,-4.416665 -2.125,-6.749997 -2.125,-2.374999 -6.66666,-2.374999 -4.54167,0 -6.66667,2.374999 -2.125,2.333332 -2.125,6.749997 v 27.541655 q 0,4.416665 2.125,6.791664 2.16667,2.333335 6.66667,2.333335 z"
       id="path925" />
  </g>
  <path
     transform="rotate(90)"
     d="m 220.88521,-104.13011 a 100,100 0 0 1 0,-141.42136 l 70.71068,70.71068 z"
     sodipodi:arc-type="slice"
     sodipodi:end="3.9269908"
     sodipodi:start="2.3561945"
     sodipodi:ry="100"
     sodipodi:rx="100"
     sodipodi:cy="-174.84079"
     sodipodi:cx="291.59589"
     sodipodi:type="arc"
     style="fill:#ffffff;fill-opacity:1"
     id="circle6-4"
     stroke-width="5"
     stroke="#000000"
     fill="#ababab" />
  <rect
     style="font-variation-settings:'wdth' 100, 'wght' 400;opacity:0.998;fill:#ffffff;fill-opacity:1;fill-rule:evenodd;stroke:#000000;stroke-width:5;stroke-linejoin:round;stroke-miterlimit:4;stroke-dasharray:none"
     id="rect866"
     width="50"
     height="50"
     x="-329.82053"
     y="-82.558319"
     transform="rotate(-135)" />
  <rect
     transform="rotate(-135)"
     y="-82.558319"
     x="-329.82053"
     height="15"
     width="15"
     id="rect866-7"
     style="font-variation-settings:'wdth' 100, 'wght' 400;opacity:0.998;fill:#ffffff;fill-opacity:1;fill-rule:evenodd;stroke:#000000;stroke-width:5;stroke-linejoin:round;stroke-miterlimit:4;stroke-dasharray:none" />
  <rect
     style="font-variation-settings:'wdth' 100, 'wght' 400;opacity:0.998;fill:#ffffff;fill-opacity:1;fill-rule:evenodd;stroke:#000000;stroke-width:5;stroke-linejoin:round;stroke-miterlimit:4;stroke-dasharray:none"
     id="rect866-7-9"
     width="15"
     height="15"
     x="-329.82053"
     y="-47.558319"
     transform="rotate(-135)" />
  <rect
     transform="rotate(-135)"
     y="-47.558319"
     x="-294.82053"
     height="15"
     width="15"
     id="rect866-7-9-0"
     style="font-variation-settings:'wdth' 100, 'wght' 400;opacity:0.998;fill:#ffffff;fill-opacity:1;fill-rule:evenodd;stroke:#000000;stroke-width:5;stroke-linejoin:round;stroke-miterlimit:4;stroke-dasharray:none" />
  <rect
     transform="rotate(-135)"
     y="-82.558319"
     x="-294.82053"
     height="15"
     width="15"
     id="rect866-7-9-2"
     style="font-variation-settings:'wdth' 100, 'wght' 400;opacity:0.998;fill:#ffffff;fill-opacity:1;fill-rule:evenodd;stroke:#000000;stroke-width:5;stroke-linejoin:round;stroke-miterlimit:4;stroke-dasharray:none" />
</svg>
