<svg xmlns="http://www.w3.org/2000/svg" fill="none" viewBox="0 0 348 348"><defs><clipPath id="a" clipPathUnits="userSpaceOnUse"><path fill="#000" stroke="#646464" stroke-width="2.924" d="M74.256 74.604h57.075v57.076H74.256Z"/></clipPath></defs><path stroke="#000" stroke-width="2" d="M5.08 5.78h336.91v337.67H5.08z"/><circle cx="254.312" cy="258.092" r="58.789" fill="#ababab" stroke="#000" stroke-width="2.622"/><path stroke="#000" stroke-width="2" d="M282.73 40.55c0-8.37 6.97-15.16 15.56-15.16 4.13 0 8.09 1.6 11 4.44a14.97 14.97 0 0 1 4.56 10.72c0 8.38-6.96 15.17-15.56 15.17-8.59 0-15.56-6.8-15.56-15.17z"/><path fill="#000" stroke="#646464" stroke-width="8.773" d="M17.18 17.528h171.227v171.227H17.18Z"/><g fill="#fff" aria-label="も" clip-path="url(#a)" font-family="Bahnschrift" font-size="180" font-weight="400" letter-spacing="1" style="line-height:1;-inkscape-font-specification:'Bahnschrift, @wght=300,wdth=75.0';font-variant-ligatures:normal;font-variant-caps:normal;font-variant-numeric:normal;font-variant-east-asian:normal;font-variation-settings:'wdth' 75,'wght' 300" word-spacing="1"><path d="M88.57 135.939q-1.407 15.468 6.328 23.203 7.734 7.734 21.797 7.734 18.28 0 24.609-6.328 6.328-6.328 6.328-21.094 0-10.547-4.219-25.312l14.766-2.11q4.922 19.688 4.922 26.72 0 21.796-10.547 32.343-11.25 11.25-36.563 11.25-20.39 0-32.343-11.953-11.25-11.25-9.844-30.938l1.406-21.094H39.35v-13.359h37.97l2.812-27.422H47.085V64.22h35.156l3.516-40.077 15.469 2.11q7.734 2.108 1.406 5.624L97.007 64.22h27.422v13.36H94.898L92.085 105h33.75v13.36h-35.86Z"/></g></svg>